<svg id="SvgjsSvg1099" width="920" height="531" xmlns="http://www.w3.org/2000/svg" version="1.1" xmlns:xlink="http://www.w3.org/1999/xlink" xmlns:svgjs="http://svgjs.com/svgjs"><defs id="SvgjsDefs1100"><marker id="SvgjsMarker1140" markerWidth="16" markerHeight="12" refX="16" refY="6" viewBox="0 0 16 12" orient="auto" markerUnits="userSpaceOnUse"><path id="SvgjsPath1141" d="M0,2 L14,6 L0,11 L0,2" fill="#323232" stroke="#323232" stroke-width="2"></path></marker><marker id="SvgjsMarker1148" markerWidth="16" markerHeight="12" refX="16" refY="6" viewBox="0 0 16 12" orient="auto" markerUnits="userSpaceOnUse"><path id="SvgjsPath1149" d="M0,2 L14,6 L0,11 L0,2" fill="#323232" stroke="#323232" stroke-width="2"></path></marker><marker id="SvgjsMarker1152" markerWidth="16" markerHeight="12" refX="16" refY="6" viewBox="0 0 16 12" orient="auto" markerUnits="userSpaceOnUse"><path id="SvgjsPath1153" d="M0,2 L14,6 L0,11 L0,2" fill="#323232" stroke="#323232" stroke-width="2"></path></marker><marker id="SvgjsMarker1160" markerWidth="16" markerHeight="12" refX="16" refY="6" viewBox="0 0 16 12" orient="auto" markerUnits="userSpaceOnUse"><path id="SvgjsPath1161" d="M0,2 L14,6 L0,11 L0,2" fill="#323232" stroke="#323232" stroke-width="2"></path></marker><marker id="SvgjsMarker1168" markerWidth="16" markerHeight="12" refX="16" refY="6" viewBox="0 0 16 12" orient="auto" markerUnits="userSpaceOnUse"><path id="SvgjsPath1169" d="M0,2 L14,6 L0,11 L0,2" fill="#323232" stroke="#323232" stroke-width="2"></path></marker><marker id="SvgjsMarker1174" markerWidth="16" markerHeight="12" refX="16" refY="6" viewBox="0 0 16 12" orient="auto" markerUnits="userSpaceOnUse"><path id="SvgjsPath1175" d="M0,2 L14,6 L0,11 L0,2" fill="#323232" stroke="#323232" stroke-width="2"></path></marker><marker id="SvgjsMarker1182" markerWidth="16" markerHeight="12" refX="16" refY="6" viewBox="0 0 16 12" orient="auto" markerUnits="userSpaceOnUse"><path id="SvgjsPath1183" d="M0,2 L14,6 L0,11 L0,2" fill="#323232" stroke="#323232" stroke-width="2"></path></marker><marker id="SvgjsMarker1186" markerWidth="16" markerHeight="12" refX="16" refY="6" viewBox="0 0 16 12" orient="auto" markerUnits="userSpaceOnUse"><path id="SvgjsPath1187" d="M0,2 L14,6 L0,11 L0,2" fill="#323232" stroke="#323232" stroke-width="2"></path></marker></defs><rect id="SvgjsRect1101" width="920" height="531" fill="#ffffff"></rect><g id="SvgjsG1102" transform="translate(272,25)"><path id="SvgjsPath1103" d="M 77 30L 77 481" stroke-dasharray="3,4" stroke="#323232" stroke-width="2" fill="none"></path><path id="SvgjsPath1104" d="M 0 0L 154 0L 154 30L 0 30Z" stroke="#323232" stroke-width="2" fill-opacity="1" fill="#ffffff"></path><g id="SvgjsG1105"><text id="SvgjsText1106" font-family="微软雅黑" text-anchor="middle" font-size="13px" width="125" fill="#323232" font-weight="400" align="middle" anchor="middle" family="微软雅黑" size="13px" weight="400" font-style="" y="5.05" transform="rotate(0)"><tspan id="SvgjsTspan1107" dy="16" x="77"><tspan id="SvgjsTspan1108" style="text-decoration:;">Operator-Controller</tspan></tspan></text></g></g><g id="SvgjsG1109" transform="translate(25,25)"><path id="SvgjsPath1110" d="M 56 30L 56 481" stroke-dasharray="3,4" stroke="#323232" stroke-width="2" fill="none"></path><path id="SvgjsPath1111" d="M 0 0L 112 0L 112 30L 0 30Z" stroke="#323232" stroke-width="2" fill-opacity="1" fill="#ffffff"></path><g id="SvgjsG1112"><text id="SvgjsText1113" font-family="微软雅黑" text-anchor="middle" font-size="13px" width="83" fill="#323232" font-weight="400" align="middle" anchor="middle" family="微软雅黑" size="13px" weight="400" font-style="" y="5.05" transform="rotate(0)"><tspan id="SvgjsTspan1114" dy="16" x="56"><tspan id="SvgjsTspan1115" style="text-decoration:;">MetricSource</tspan></tspan></text></g></g><g id="SvgjsG1116" transform="translate(66,80)"><path id="SvgjsPath1117" d="M 0 4Q 0 0 4 0L 26 0Q 30 0 30 4L 30 282Q 30 286 26 286L 4 286Q 0 286 0 282L 0 4Z" stroke="#323232" stroke-width="2" fill-opacity="1" fill="#ffffff"></path></g><g id="SvgjsG1118" transform="translate(748,25)"><path id="SvgjsPath1119" d="M 73.25 30L 73.25 481" stroke-dasharray="3,4" stroke="#323232" stroke-width="2" fill="none"></path><path id="SvgjsPath1120" d="M 0 0L 146.5 0L 146.5 30L 0 30Z" stroke="#323232" stroke-width="2" fill-opacity="1" fill="#ffffff"></path><g id="SvgjsG1121"><text id="SvgjsText1122" font-family="微软雅黑" text-anchor="middle" font-size="13px" width="82" fill="#323232" font-weight="400" align="middle" anchor="middle" family="微软雅黑" size="13px" weight="400" font-style="" y="5.05" transform="rotate(0)"><tspan id="SvgjsTspan1123" dy="16" x="73.5"><tspan id="SvgjsTspan1124" style="text-decoration:;">metric-server</tspan></tspan></text></g></g><g id="SvgjsG1125" transform="translate(806.25,85)"><path id="SvgjsPath1126" d="M 0 4Q 0 0 4 0L 26 0Q 30 0 30 4L 30 101Q 30 105 26 105L 4 105Q 0 105 0 101L 0 4Z" stroke="#323232" stroke-width="2" fill-opacity="1" fill="#ffffff"></path></g><g id="SvgjsG1127" transform="translate(550,25)"><path id="SvgjsPath1128" d="M 73.25 30L 73.25 481" stroke-dasharray="3,4" stroke="#323232" stroke-width="2" fill="none"></path><path id="SvgjsPath1129" d="M 0 0L 146.5 0L 146.5 30L 0 30Z" stroke="#323232" stroke-width="2" fill-opacity="1" fill="#ffffff"></path><g id="SvgjsG1130"><text id="SvgjsText1131" font-family="微软雅黑" text-anchor="middle" font-size="13px" width="62" fill="#323232" font-weight="400" align="middle" anchor="middle" family="微软雅黑" size="13px" weight="400" font-style="" y="5.05" transform="rotate(0)"><tspan id="SvgjsTspan1132" dy="16" x="73.5"><tspan id="SvgjsTspan1133" style="text-decoration:;">api-server</tspan></tspan></text></g></g><g id="SvgjsG1134" transform="translate(334,312)"><path id="SvgjsPath1135" d="M 0 4Q 0 0 4 0L 26 0Q 30 0 30 4L 30 171.33334350585938Q 30 175.33334350585938 26 175.33334350585938L 4 175.33334350585938Q 0 175.33334350585938 0 171.33334350585938L 0 4Z" stroke="#323232" stroke-width="2" fill-opacity="1" fill="#ffffff"></path></g><g id="SvgjsG1136" transform="translate(608.25,190)"><path id="SvgjsPath1137" d="M 0 4Q 0 0 4 0L 26 0Q 30 0 30 4L 30 96Q 30 100 26 100L 4 100Q 0 100 0 96L 0 4Z" stroke="#323232" stroke-width="2" fill-opacity="1" fill="#ffffff"></path></g><g id="SvgjsG1138"><path id="SvgjsPath1139" d="M96 112.33333587646484L451.125 112.33333587646484L451.125 112.33333587646484L806.25 112.33333587646484" stroke="#323232" stroke-width="2" fill="none" marker-end="url(#SvgjsMarker1140)"></path><rect id="SvgjsRect1142" width="78" height="16" x="412.125" y="104.33333587646484" fill="#ffffff"></rect><text id="SvgjsText1143" font-family="微软雅黑" text-anchor="middle" font-size="13px" width="78" fill="#323232" font-weight="400" align="top" anchor="middle" family="微软雅黑" size="13px" weight="400" font-style="" y="102.38333587646484" transform="rotate(0)"><tspan id="SvgjsTspan1144" dy="16" x="451.125"><tspan id="SvgjsTspan1145" style="text-decoration:;">拉取监控数据</tspan></tspan></text></g><g id="SvgjsG1146"><path id="SvgjsPath1147" d="M806.25 158L450.7916667461395 158L450.7916667461395 158L95.33333349227905 158" stroke-dasharray="8,5" stroke="#323232" stroke-width="2" fill="none" marker-end="url(#SvgjsMarker1148)"></path></g><g id="SvgjsG1150"><path id="SvgjsPath1151" d="M95.33333349227905 329.95454742458867L214.79166674613953 329.95454742458867L214.79166674613953 331.3333435058594L334.25 331.3333435058594" stroke="#323232" stroke-width="2" fill="none" marker-end="url(#SvgjsMarker1152)"></path><rect id="SvgjsRect1154" width="65" height="16" x="182.29166674613953" y="322.643945465224" fill="#ffffff"></rect><text id="SvgjsText1155" font-family="微软雅黑" text-anchor="middle" font-size="13px" width="65" fill="#323232" font-weight="400" align="top" anchor="middle" family="微软雅黑" size="13px" weight="400" font-style="" y="320.69394546522403" transform="rotate(0)"><tspan id="SvgjsTspan1156" dy="16" x="214.79166674613953"><tspan id="SvgjsTspan1157" style="text-decoration:;">更新监控项</tspan></tspan></text></g><g id="SvgjsG1158"><path id="SvgjsPath1159" d="M92.33333349227905 216L350.70833349227905 216L350.70833349227905 216L609.083333492279 216" stroke="#323232" stroke-width="2" fill="none" marker-end="url(#SvgjsMarker1160)"></path><rect id="SvgjsRect1162" width="78" height="16" x="311.70833349227905" y="208" fill="#ffffff"></rect><text id="SvgjsText1163" font-family="微软雅黑" text-anchor="middle" font-size="13px" width="78" fill="#323232" font-weight="400" align="top" anchor="middle" family="微软雅黑" size="13px" weight="400" font-style="" y="206.05" transform="rotate(0)"><tspan id="SvgjsTspan1164" dy="16" x="350.70833349227905"><tspan id="SvgjsTspan1165" style="text-decoration:;">拉取监控数据</tspan></tspan></text></g><g id="SvgjsG1166"><path id="SvgjsPath1167" d="M609.083333492279 266L351.20833349227905 266L351.20833349227905 266L93.33333349227905 266" stroke-dasharray="8,5" stroke="#323232" stroke-width="2" fill="none" marker-end="url(#SvgjsMarker1168)"></path></g><g id="SvgjsG1170" transform="translate(608.25,315)"><path id="SvgjsPath1171" d="M 0 4Q 0 0 4 0L 26 0Q 30 0 30 4L 30 168.33334350585938Q 30 172.33334350585938 26 172.33334350585938L 4 172.33334350585938Q 0 172.33334350585938 0 168.33334350585938L 0 4Z" stroke="#323232" stroke-width="2" fill-opacity="1" fill="#ffffff"></path></g><g id="SvgjsG1172"><path id="SvgjsPath1173" d="M369.75 357.7862094221444L489.25 357.7862094221444L489.25 357.7862094221444L608.75 357.7862094221444" stroke="#323232" stroke-width="2" fill="none" marker-end="url(#SvgjsMarker1174)"></path><rect id="SvgjsRect1176" width="112" height="16" x="433.25" y="349.7862094221444" fill="#ffffff"></rect><text id="SvgjsText1177" font-family="微软雅黑" text-anchor="middle" font-size="13px" width="112" fill="#323232" font-weight="400" align="top" anchor="middle" family="微软雅黑" size="13px" weight="400" font-style="" y="347.8362094221444" transform="rotate(0)"><tspan id="SvgjsTspan1178" dy="16" x="489.25"><tspan id="SvgjsTspan1179" style="text-decoration:;">查询对应Slime资源</tspan></tspan></text></g><g id="SvgjsG1180"><path id="SvgjsPath1181" d="M608.75 401.3333435058594L486 401.3333435058594L486 401.3333435058594L363.25 401.3333435058594" stroke-dasharray="8,5" stroke="#323232" stroke-width="2" fill="none" marker-end="url(#SvgjsMarker1182)"></path></g><g id="SvgjsG1184"><path id="SvgjsPath1185" d="M363.25 451.3333435058594L485.875 451.3333435058594L485.875 447L608.5 447" stroke="#323232" stroke-width="2" fill="none" marker-end="url(#SvgjsMarker1186)"></path><rect id="SvgjsRect1188" width="145" height="16" x="413.375" y="441.1666717529297" fill="#ffffff"></rect><text id="SvgjsText1189" font-family="微软雅黑" text-anchor="middle" font-size="13px" width="144" fill="#323232" font-weight="400" align="top" anchor="middle" family="微软雅黑" size="13px" weight="400" font-style="" y="439.2166717529297" transform="rotate(0)"><tspan id="SvgjsTspan1190" dy="16" x="485.875"><tspan id="SvgjsTspan1191" style="text-decoration:;">更新GatewayPlugin资源</tspan></tspan></text></g></svg>