<svg id="SvgjsSvg1140" width="749.6770782470703" height="549.5" xmlns="http://www.w3.org/2000/svg" version="1.1" xmlns:xlink="http://www.w3.org/1999/xlink" xmlns:svgjs="http://svgjs.com/svgjs"><defs id="SvgjsDefs1141"><marker id="SvgjsMarker1166" markerWidth="16" markerHeight="12" refX="16" refY="6" viewBox="0 0 16 12" orient="auto" markerUnits="userSpaceOnUse"><path id="SvgjsPath1167" d="M0,2 L14,6 L0,11 L0,2" fill="#323232" stroke="#323232" stroke-width="2"></path></marker><marker id="SvgjsMarker1170" markerWidth="16" markerHeight="12" refX="16" refY="6" viewBox="0 0 16 12" orient="auto" markerUnits="userSpaceOnUse"><path id="SvgjsPath1171" d="M0,2 L14,6 L0,11 L0,2" fill="#323232" stroke="#323232" stroke-width="2"></path></marker><marker id="SvgjsMarker1180" markerWidth="16" markerHeight="12" refX="16" refY="6" viewBox="0 0 16 12" orient="auto" markerUnits="userSpaceOnUse"><path id="SvgjsPath1181" d="M0,2 L14,6 L0,11 L0,2" fill="#323232" stroke="#323232" stroke-width="2"></path></marker><marker id="SvgjsMarker1210" markerWidth="16" markerHeight="12" refX="16" refY="6" viewBox="0 0 16 12" orient="auto" markerUnits="userSpaceOnUse"><path id="SvgjsPath1211" d="M0,2 L14,6 L0,11 L0,2" fill="#323232" stroke="#323232" stroke-width="2"></path></marker><marker id="SvgjsMarker1214" markerWidth="16" markerHeight="12" refX="16" refY="6" viewBox="0 0 16 12" orient="auto" markerUnits="userSpaceOnUse"><path id="SvgjsPath1215" d="M0,2 L14,6 L0,11 L0,2" fill="#323232" stroke="#323232" stroke-width="2"></path></marker><marker id="SvgjsMarker1218" markerWidth="16" markerHeight="12" refX="16" refY="6" viewBox="0 0 16 12" orient="auto" markerUnits="userSpaceOnUse"><path id="SvgjsPath1219" d="M0,2 L14,6 L0,11 L0,2" fill="#323232" stroke="#323232" stroke-width="2"></path></marker><marker id="SvgjsMarker1228" markerWidth="16" markerHeight="12" refX="16" refY="6" viewBox="0 0 16 12" orient="auto" markerUnits="userSpaceOnUse"><path id="SvgjsPath1229" d="M0,2 L14,6 L0,11 L0,2" fill="#323232" stroke="#323232" stroke-width="2"></path></marker><marker id="SvgjsMarker1248" markerWidth="16" markerHeight="12" refX="16" refY="6" viewBox="0 0 16 12" orient="auto" markerUnits="userSpaceOnUse"><path id="SvgjsPath1249" d="M0,2 L14,6 L0,11 L0,2" fill="#323232" stroke="#323232" stroke-width="2"></path></marker><marker id="SvgjsMarker1284" markerWidth="16" markerHeight="12" refX="16" refY="6" viewBox="0 0 16 12" orient="auto" markerUnits="userSpaceOnUse"><path id="SvgjsPath1285" d="M0,2 L14,6 L0,11 L0,2" fill="#323232" stroke="#323232" stroke-width="2"></path></marker><marker id="SvgjsMarker1288" markerWidth="16" markerHeight="12" refX="16" refY="6" viewBox="0 0 16 12" orient="auto" markerUnits="userSpaceOnUse"><path id="SvgjsPath1289" d="M0,2 L14,6 L0,11 L0,2" fill="#323232" stroke="#323232" stroke-width="2"></path></marker></defs><g id="SvgjsG1142" transform="translate(276.6770782470703,253.8333339691162)"><path id="SvgjsPath1143" d="M 0 0L 185 0L 185 121.66666603088379L 0 121.66666603088379Z" stroke="#323232" stroke-width="2" fill-opacity="1" fill="#ffffff"></path><g id="SvgjsG1144"><text id="SvgjsText1145" font-family="微软雅黑" text-anchor="middle" font-size="13px" width="0" fill="#323232" font-weight="400" align="middle" anchor="middle" family="微软雅黑" size="13px" weight="400" font-style="" y="50.88333301544189" transform="rotate(0)"></text></g></g><g id="SvgjsG1146" transform="translate(322.1770782470703,284.5)"><path id="SvgjsPath1147" d="M 0 0L 94 0L 94 28L 0 28Z" stroke="#323232" stroke-width="2" fill-opacity="1" fill="#ffffff"></path><g id="SvgjsG1148"><text id="SvgjsText1149" font-family="微软雅黑" text-anchor="middle" font-size="13px" width="41" fill="#323232" font-weight="400" align="middle" anchor="middle" family="微软雅黑" size="13px" weight="400" font-style="" y="4.05" transform="rotate(0)"><tspan id="SvgjsTspan1150" dy="16" x="47"><tspan id="SvgjsTspan1151" style="text-decoration:;">source</tspan></tspan></text></g></g><g id="SvgjsG1152" transform="translate(306.6770782470703,132.5)"><path id="SvgjsPath1153" d="M 0 0L 125 0L 125 32L 0 32Z" stroke="#323232" stroke-width="2" fill-opacity="1" fill="#ffffff"></path><g id="SvgjsG1154"><text id="SvgjsText1155" font-family="微软雅黑" text-anchor="middle" font-size="13px" width="82" fill="#323232" font-weight="400" align="middle" anchor="middle" family="微软雅黑" size="13px" weight="400" font-style="" y="6.05" transform="rotate(0)"><tspan id="SvgjsTspan1156" dy="16" x="62.5"><tspan id="SvgjsTspan1157" style="text-decoration:;">metric-server</tspan></tspan></text></g></g><g id="SvgjsG1158" transform="translate(149.6770782470703,132.5)"><path id="SvgjsPath1159" d="M 0 0L 125 0L 125 32L 0 32Z" stroke="#323232" stroke-width="2" fill-opacity="1" fill="#ffffff"></path><g id="SvgjsG1160"><text id="SvgjsText1161" font-family="微软雅黑" text-anchor="middle" font-size="13px" width="62" fill="#323232" font-weight="400" align="middle" anchor="middle" family="微软雅黑" size="13px" weight="400" font-style="" y="6.05" transform="rotate(0)"><tspan id="SvgjsTspan1162" dy="16" x="62.5"><tspan id="SvgjsTspan1163" style="text-decoration:;">api-server</tspan></tspan></text></g></g><g id="SvgjsG1164"><path id="SvgjsPath1165" d="M212.1770782470703 164.5L212.1770782470703 224.5L369.1770782470703 224.5L369.1770782470703 284.5" stroke="#323232" stroke-width="2" fill="none" marker-end="url(#SvgjsMarker1166)"></path></g><g id="SvgjsG1168"><path id="SvgjsPath1169" d="M369.1770782470703 164.5L369.1770782470703 224.5L369.1770782470703 224.5L369.1770782470703 284.5" stroke="#323232" stroke-width="2" fill="none" marker-end="url(#SvgjsMarker1170)"></path></g><g id="SvgjsG1172" transform="translate(467.6770782470703,132.5)"><path id="SvgjsPath1173" d="M 0 0L 125 0L 125 32L 0 32Z" stroke="#323232" stroke-width="2" fill-opacity="1" fill="#ffffff"></path><g id="SvgjsG1174"><text id="SvgjsText1175" font-family="微软雅黑" text-anchor="middle" font-size="13px" width="65" fill="#323232" font-weight="400" align="middle" anchor="middle" family="微软雅黑" size="13px" weight="400" font-style="" y="6.05" transform="rotate(0)"><tspan id="SvgjsTspan1176" dy="16" x="62.5"><tspan id="SvgjsTspan1177" style="text-decoration:;">ext-source</tspan></tspan></text></g></g><g id="SvgjsG1178"><path id="SvgjsPath1179" d="M530.1770782470703 164.5L530.1770782470703 224.5L369.1770782470703 224.5L369.1770782470703 284.5" stroke="#323232" stroke-width="2" fill="none" marker-end="url(#SvgjsMarker1180)"></path></g><g id="SvgjsG1182"><path id="SvgjsPath1183" d="M86.67707824707031 196.5L357.1770782470703 196.5L357.1770782470703 196.5L627.6770782470703 196.5" stroke-dasharray="3,3" stroke="#323232" stroke-width="2" fill="none"></path></g><g id="SvgjsG1184" transform="translate(627.6770782470703,127.5)"><path id="SvgjsPath1185" d="M 0 0L 97 0L 97 42L 0 42Z" stroke="none" fill="none"></path><g id="SvgjsG1186"><text id="SvgjsText1187" font-family="微软雅黑" text-anchor="middle" font-size="13px" width="39" fill="#323232" font-weight="400" align="middle" anchor="middle" family="微软雅黑" size="13px" weight="400" font-style="" y="11.05" transform="rotate(0)"><tspan id="SvgjsTspan1188" dy="16" x="48.5"><tspan id="SvgjsTspan1189" style="text-decoration:;">监控源</tspan></tspan></text></g></g><g id="SvgjsG1190" transform="translate(282.6770782470703,32.5)"><path id="SvgjsPath1191" d="M 0 0L 67 0L 67 27L 0 27Z" stroke="#323232" stroke-width="2" fill-opacity="1" fill="#ffffff"></path><g id="SvgjsG1192"><text id="SvgjsText1193" font-family="微软雅黑" text-anchor="middle" font-size="13px" width="23" fill="#323232" font-weight="400" align="middle" anchor="middle" family="微软雅黑" size="13px" weight="400" font-style="" y="3.55" transform="rotate(0)"><tspan id="SvgjsTspan1194" dy="16" x="33.5"><tspan id="SvgjsTspan1195" style="text-decoration:;">cpu</tspan></tspan></text></g></g><g id="SvgjsG1196" transform="translate(375.6770782470703,32.5)"><path id="SvgjsPath1197" d="M 0 0L 78 0L 78 27L 0 27Z" stroke="#323232" stroke-width="2" fill-opacity="1" fill="#ffffff"></path><g id="SvgjsG1198"><text id="SvgjsText1199" font-family="微软雅黑" text-anchor="middle" font-size="13px" width="52" fill="#323232" font-weight="400" align="middle" anchor="middle" family="微软雅黑" size="13px" weight="400" font-style="" y="3.55" transform="rotate(0)"><tspan id="SvgjsTspan1200" dy="16" x="39"><tspan id="SvgjsTspan1201" style="text-decoration:;">memory</tspan></tspan></text></g></g><g id="SvgjsG1202" transform="translate(178.6770782470703,32.5)"><path id="SvgjsPath1203" d="M 0 0L 67 0L 67 27L 0 27Z" stroke="#323232" stroke-width="2" fill-opacity="1" fill="#ffffff"></path><g id="SvgjsG1204"><text id="SvgjsText1205" font-family="微软雅黑" text-anchor="middle" font-size="13px" width="25" fill="#323232" font-weight="400" align="middle" anchor="middle" family="微软雅黑" size="13px" weight="400" font-style="" y="3.55" transform="rotate(0)"><tspan id="SvgjsTspan1206" dy="16" x="33.5"><tspan id="SvgjsTspan1207" style="text-decoration:;">pod</tspan></tspan></text></g></g><g id="SvgjsG1208"><path id="SvgjsPath1209" d="M212.1770782470703 59.5L212.1770782470703 96L212.1770782470703 96L212.1770782470703 132.5" stroke="#323232" stroke-width="2" fill="none" marker-end="url(#SvgjsMarker1210)"></path></g><g id="SvgjsG1212"><path id="SvgjsPath1213" d="M316.1770782470703 59.5L316.1770782470703 96L369.1770782470703 96L369.1770782470703 132.5" stroke="#323232" stroke-width="2" fill="none" marker-end="url(#SvgjsMarker1214)"></path></g><g id="SvgjsG1216"><path id="SvgjsPath1217" d="M414.6770782470703 59.5L414.6770782470703 96L369.1770782470703 96L369.1770782470703 132.5" stroke="#323232" stroke-width="2" fill="none" marker-end="url(#SvgjsMarker1218)"></path></g><g id="SvgjsG1220" transform="translate(478.5520782470703,33)"><path id="SvgjsPath1221" d="M 0 0L 103.25 0L 103.25 26L 0 26Z" stroke="#323232" stroke-width="2" fill-opacity="1" fill="#ffffff"></path><g id="SvgjsG1222"><text id="SvgjsText1223" font-family="微软雅黑" text-anchor="middle" font-size="13px" width="78" fill="#323232" font-weight="400" align="middle" anchor="middle" family="微软雅黑" size="13px" weight="400" font-style="" y="3.05" transform="rotate(0)"><tspan id="SvgjsTspan1224" dy="16" x="52"><tspan id="SvgjsTspan1225" style="text-decoration:;">自定义监控项</tspan></tspan></text></g></g><g id="SvgjsG1226"><path id="SvgjsPath1227" d="M530.1770782470703 59L530.1770782470703 95.75L530.1770782470703 95.75L530.1770782470703 132.5" stroke="#323232" stroke-width="2" fill="none" marker-end="url(#SvgjsMarker1228)"></path></g><g id="SvgjsG1230"><path id="SvgjsPath1231" d="M89.67707824707031 85.5L360.1770782470703 85.5L360.1770782470703 85.5L630.6770782470703 85.5" stroke-dasharray="3,3" stroke="#323232" stroke-width="2" fill="none"></path></g><g id="SvgjsG1232" transform="translate(627.6770782470703,25)"><path id="SvgjsPath1233" d="M 0 0L 97 0L 97 42L 0 42Z" stroke="none" fill="none"></path><g id="SvgjsG1234"><text id="SvgjsText1235" font-family="微软雅黑" text-anchor="middle" font-size="13px" width="39" fill="#323232" font-weight="400" align="middle" anchor="middle" family="微软雅黑" size="13px" weight="400" font-style="" y="11.05" transform="rotate(0)"><tspan id="SvgjsTspan1236" dy="16" x="48.5"><tspan id="SvgjsTspan1237" style="text-decoration:;">监控项</tspan></tspan></text></g></g><g id="SvgjsG1238" transform="translate(25.010391235351562,329.1666669845581)"><path id="SvgjsPath1239" d="M 0 0L 105.83331298828125 0L 105.83331298828125 28L 0 28Z" stroke="#323232" stroke-width="2" fill-opacity="1" fill="#ffffff"></path><g id="SvgjsG1240"><text id="SvgjsText1241" font-family="微软雅黑" text-anchor="middle" font-size="13px" width="75" fill="#323232" font-weight="400" align="middle" anchor="middle" family="微软雅黑" size="13px" weight="400" font-style="" y="4.05" transform="rotate(0)"><tspan id="SvgjsTspan1242" dy="16" x="53"><tspan id="SvgjsTspan1243" style="text-decoration:;">smartlimiter</tspan></tspan></text></g></g><g id="SvgjsG1244"><path id="SvgjsPath1245" d="M180.6770782470703 255.5L180.6770782470703 389.83333587646484L180.6770782470703 389.83333587646484L180.6770782470703 524.1666717529297" stroke-dasharray="3,3" stroke="#323232" stroke-width="2" fill="none"></path></g><g id="SvgjsG1246"><path id="SvgjsPath1247" d="M130.8437042236328 343.1666669845581L211.88539123535156 343.1666669845581L211.88539123535156 343.1666669845581L292.9270782470703 343.1666669845581" stroke="#323232" stroke-width="2" fill="none" marker-end="url(#SvgjsMarker1248)"></path></g><g id="SvgjsG1250" transform="translate(36.42704772949219,272.5)"><path id="SvgjsPath1251" d="M 0 0L 83 0L 83 24L 0 24Z" stroke="none" fill="none"></path><g id="SvgjsG1252"><text id="SvgjsText1253" font-family="微软雅黑" text-anchor="middle" font-size="13px" width="27" fill="#323232" font-weight="400" align="middle" anchor="middle" family="微软雅黑" size="13px" weight="400" font-style="" y="2.05" transform="rotate(0)"><tspan id="SvgjsTspan1254" dy="16" x="41.5"><tspan id="SvgjsTspan1255" style="text-decoration:;">CRD</tspan></tspan></text></g></g><g id="SvgjsG1256" transform="translate(25.010391235351562,379.5)"><path id="SvgjsPath1257" d="M 0 0L 121 0L 121 47L 0 47Z" stroke="#323232" stroke-width="2" fill-opacity="1" fill="#ffffff"></path><g id="SvgjsG1258"><text id="SvgjsText1259" font-family="微软雅黑" text-anchor="middle" font-size="13px" width="100" fill="#323232" font-weight="400" align="middle" anchor="middle" family="微软雅黑" size="13px" weight="400" font-style="" y="5.55" transform="rotate(0)"><tspan id="SvgjsTspan1260" dy="16" x="60.5"><tspan id="SvgjsTspan1261" style="text-decoration:;">envoyplugin</tspan></tspan><tspan id="SvgjsTspan1262" dy="16" x="60.5"><tspan id="SvgjsTspan1263" style="text-decoration:;">(gatewayplugin)</tspan></tspan></text></g></g><g id="SvgjsG1264" transform="translate(25.010391235351562,452.5)"><path id="SvgjsPath1265" d="M 0 0L 130.66668701171875 0L 130.66668701171875 42L 0 42Z" stroke="#323232" stroke-width="2" fill-opacity="1" fill="#ffffff"></path><g id="SvgjsG1266"><text id="SvgjsText1267" font-family="微软雅黑" text-anchor="middle" font-size="13px" width="105" fill="#323232" font-weight="400" align="middle" anchor="middle" family="微软雅黑" size="13px" weight="400" font-style="" y="11.05" transform="rotate(0)"><tspan id="SvgjsTspan1268" dy="16" x="65.5"><tspan id="SvgjsTspan1269" style="text-decoration:;">filterDeployment</tspan></tspan></text></g></g><g id="SvgjsG1270" transform="translate(292.9270782470703,329.5)"><path id="SvgjsPath1271" d="M 0 0L 152.5 0L 152.5 27.33333396911621L 0 27.33333396911621Z" stroke="#323232" stroke-width="2" fill-opacity="1" fill="#ffffff"></path><g id="SvgjsG1272"><text id="SvgjsText1273" font-family="微软雅黑" text-anchor="middle" font-size="13px" width="119" fill="#323232" font-weight="400" align="middle" anchor="middle" family="微软雅黑" size="13px" weight="400" font-style="" y="3.7166669845581053" transform="rotate(0)"><tspan id="SvgjsTspan1274" dy="16" x="76.5"><tspan id="SvgjsTspan1275" style="text-decoration:;">operator-controller</tspan></tspan></text></g></g><g id="SvgjsG1276" transform="translate(276.6770782470703,256.5)"><path id="SvgjsPath1277" d="M 0 0L 81 0L 81 26L 0 26Z" stroke="none" fill="none"></path><g id="SvgjsG1278"><text id="SvgjsText1279" font-family="微软雅黑" text-anchor="middle" font-size="13px" width="34" fill="#323232" font-weight="700" align="middle" anchor="middle" family="微软雅黑" size="13px" weight="700" font-style="" y="3.05" transform="rotate(0)"><tspan id="SvgjsTspan1280" dy="16" x="40.5"><tspan id="SvgjsTspan1281" style="text-decoration:;">slime</tspan></tspan></text></g></g><g id="SvgjsG1282"><path id="SvgjsPath1283" d="M369.1770782470703 356.8333339691162L369.1770782470703 403L146.01039123535156 403" stroke="#323232" stroke-width="2" fill="none" marker-end="url(#SvgjsMarker1284)"></path></g><g id="SvgjsG1286"><path id="SvgjsPath1287" d="M369.1770782470703 356.8333339691162L369.1770782470703 473.5L155.6770782470703 473.5" stroke-dasharray="8,5" stroke="#323232" stroke-width="2" fill="none" marker-end="url(#SvgjsMarker1288)"></path></g></svg>