<svg id="SvgjsSvg1006" width="722" height="531" xmlns="http://www.w3.org/2000/svg" version="1.1" xmlns:xlink="http://www.w3.org/1999/xlink" xmlns:svgjs="http://svgjs.com/svgjs"><defs id="SvgjsDefs1007"><marker id="SvgjsMarker1038" markerWidth="16" markerHeight="12" refX="16" refY="6" viewBox="0 0 16 12" orient="auto" markerUnits="userSpaceOnUse"><path id="SvgjsPath1039" d="M0,2 L14,6 L0,11 L0,2" fill="#323232" stroke="#323232" stroke-width="2"></path></marker><marker id="SvgjsMarker1046" markerWidth="16" markerHeight="12" refX="16" refY="6" viewBox="0 0 16 12" orient="auto" markerUnits="userSpaceOnUse"><path id="SvgjsPath1047" d="M0,2 L14,6 L0,11 L0,2" fill="#323232" stroke="#323232" stroke-width="2"></path></marker><marker id="SvgjsMarker1050" markerWidth="16" markerHeight="12" refX="16" refY="6" viewBox="0 0 16 12" orient="auto" markerUnits="userSpaceOnUse"><path id="SvgjsPath1051" d="M0,2 L14,6 L0,11 L0,2" fill="#323232" stroke="#323232" stroke-width="2"></path></marker><marker id="SvgjsMarker1060" markerWidth="16" markerHeight="12" refX="16" refY="6" viewBox="0 0 16 12" orient="auto" markerUnits="userSpaceOnUse"><path id="SvgjsPath1061" d="M0,2 L14,6 L0,11 L0,2" fill="#323232" stroke="#323232" stroke-width="2"></path></marker><marker id="SvgjsMarker1068" markerWidth="16" markerHeight="12" refX="16" refY="6" viewBox="0 0 16 12" orient="auto" markerUnits="userSpaceOnUse"><path id="SvgjsPath1069" d="M0,2 L14,6 L0,11 L0,2" fill="#323232" stroke="#323232" stroke-width="2"></path></marker><marker id="SvgjsMarker1078" markerWidth="16" markerHeight="12" refX="16" refY="6" viewBox="0 0 16 12" orient="auto" markerUnits="userSpaceOnUse"><path id="SvgjsPath1079" d="M0,2 L14,6 L0,11 L0,2" fill="#323232" stroke="#323232" stroke-width="2"></path></marker></defs><rect id="SvgjsRect1008" width="722" height="531" fill="#ffffff"></rect><g id="SvgjsG1009" transform="translate(272,24.999996185302734)"><path id="SvgjsPath1010" d="M 77 30L 77 481" stroke-dasharray="3,4" stroke="#323232" stroke-width="2" fill="none"></path><path id="SvgjsPath1011" d="M 0 0L 154 0L 154 30L 0 30Z" stroke="#323232" stroke-width="2" fill-opacity="1" fill="#ffffff"></path><g id="SvgjsG1012"><text id="SvgjsText1013" font-family="微软雅黑" text-anchor="middle" font-size="13px" width="125" fill="#323232" font-weight="400" align="middle" anchor="middle" family="微软雅黑" size="13px" weight="400" font-style="" y="5.05" transform="rotate(0)"><tspan id="SvgjsTspan1014" dy="16" x="77"><tspan id="SvgjsTspan1015" style="text-decoration:;">Operator-Controller</tspan></tspan></text></g></g><g id="SvgjsG1016" transform="translate(25,24.999996185302734)"><path id="SvgjsPath1017" d="M 56 30L 56 481" stroke-dasharray="3,4" stroke="#323232" stroke-width="2" fill="none"></path><path id="SvgjsPath1018" d="M 0 0L 112 0L 112 30L 0 30Z" stroke="#323232" stroke-width="2" fill-opacity="1" fill="#ffffff"></path><g id="SvgjsG1019"><text id="SvgjsText1020" font-family="微软雅黑" text-anchor="middle" font-size="13px" width="83" fill="#323232" font-weight="400" align="middle" anchor="middle" family="微软雅黑" size="13px" weight="400" font-style="" y="5.05" transform="rotate(0)"><tspan id="SvgjsTspan1021" dy="16" x="56"><tspan id="SvgjsTspan1022" style="text-decoration:;">MetricSource</tspan></tspan></text></g></g><g id="SvgjsG1023" transform="translate(66,79.99999618530273)"><path id="SvgjsPath1024" d="M 0 4Q 0 0 4 0L 26 0Q 30 0 30 4L 30 282Q 30 286 26 286L 4 286Q 0 286 0 282L 0 4Z" stroke="#323232" stroke-width="2" fill-opacity="1" fill="#ffffff"></path></g><g id="SvgjsG1025" transform="translate(550,24.999996185302734)"><path id="SvgjsPath1026" d="M 73.25 30L 73.25 481" stroke-dasharray="3,4" stroke="#323232" stroke-width="2" fill="none"></path><path id="SvgjsPath1027" d="M 0 0L 146.5 0L 146.5 30L 0 30Z" stroke="#323232" stroke-width="2" fill-opacity="1" fill="#ffffff"></path><g id="SvgjsG1028"><text id="SvgjsText1029" font-family="微软雅黑" text-anchor="middle" font-size="13px" width="62" fill="#323232" font-weight="400" align="middle" anchor="middle" family="微软雅黑" size="13px" weight="400" font-style="" y="5.05" transform="rotate(0)"><tspan id="SvgjsTspan1030" dy="16" x="73.5"><tspan id="SvgjsTspan1031" style="text-decoration:;">api-server</tspan></tspan></text></g></g><g id="SvgjsG1032" transform="translate(608.25,79.99999618530273)"><path id="SvgjsPath1033" d="M 0 4Q 0 0 4 0L 26 0Q 30 0 30 4L 30 36Q 30 40 26 40L 4 40Q 0 40 0 36L 0 4Z" stroke="#323232" stroke-width="2" fill-opacity="1" fill="#ffffff"></path></g><g id="SvgjsG1034" transform="translate(608.25,314.99999618530273)"><path id="SvgjsPath1035" d="M 0 4Q 0 0 4 0L 26 0Q 30 0 30 4L 30 168.33334350585938Q 30 172.33334350585938 26 172.33334350585938L 4 172.33334350585938Q 0 172.33334350585938 0 168.33334350585938L 0 4Z" stroke="#323232" stroke-width="2" fill-opacity="1" fill="#ffffff"></path></g><g id="SvgjsG1036"><path id="SvgjsPath1037" d="M369.75 357.78620560744713L489.25 357.78620560744713L489.25 357.78620560744713L608.75 357.78620560744713" stroke="#323232" stroke-width="2" fill="none" marker-end="url(#SvgjsMarker1038)"></path><rect id="SvgjsRect1040" width="112" height="16" x="433.25" y="349.78620560744713" fill="#ffffff"></rect><text id="SvgjsText1041" font-family="微软雅黑" text-anchor="middle" font-size="13px" width="112" fill="#323232" font-weight="400" align="top" anchor="middle" family="微软雅黑" size="13px" weight="400" font-style="" y="347.83620560744714" transform="rotate(0)"><tspan id="SvgjsTspan1042" dy="16" x="489.25"><tspan id="SvgjsTspan1043" style="text-decoration:;">查询对应Slime资源</tspan></tspan></text></g><g id="SvgjsG1044"><path id="SvgjsPath1045" d="M608.75 401.3333396911621L486 401.3333396911621L486 401.3333396911621L363.25 401.3333396911621" stroke-dasharray="8,5" stroke="#323232" stroke-width="2" fill="none" marker-end="url(#SvgjsMarker1046)"></path></g><g id="SvgjsG1048"><path id="SvgjsPath1049" d="M363.25 451.3333396911621L485.875 451.3333396911621L485.875 446.99999618530273L608.5 446.99999618530273" stroke="#323232" stroke-width="2" fill="none" marker-end="url(#SvgjsMarker1050)"></path><rect id="SvgjsRect1052" width="145" height="16" x="413.375" y="441.1666679382324" fill="#ffffff"></rect><text id="SvgjsText1053" font-family="微软雅黑" text-anchor="middle" font-size="13px" width="144" fill="#323232" font-weight="400" align="top" anchor="middle" family="微软雅黑" size="13px" weight="400" font-style="" y="439.21666793823243" transform="rotate(0)"><tspan id="SvgjsTspan1054" dy="16" x="485.875"><tspan id="SvgjsTspan1055" style="text-decoration:;">更新GatewayPlugin资源</tspan></tspan></text></g><g id="SvgjsG1056" transform="translate(337.25,79.99999618530273)"><path id="SvgjsPath1057" d="M 0 4Q 0 0 4 0L 26 0Q 30 0 30 4L 30 71.3333330154419Q 30 75.3333330154419 26 75.3333330154419L 4 75.3333330154419Q 0 75.3333330154419 0 71.3333330154419L 0 4Z" stroke="#323232" stroke-width="2" fill-opacity="1" fill="#ffffff"></path></g><g id="SvgjsG1058"><path id="SvgjsPath1059" d="M609 100.99999618530273L488 100.99999618530273L488 102.33332920074463L367 102.33332920074463" stroke="#323232" stroke-width="2" fill="none" marker-end="url(#SvgjsMarker1060)"></path><rect id="SvgjsRect1062" width="82" height="16" x="447" y="93.66666269302368" fill="#ffffff"></rect><text id="SvgjsText1063" font-family="微软雅黑" text-anchor="middle" font-size="13px" width="82" fill="#323232" font-weight="400" align="top" anchor="middle" family="微软雅黑" size="13px" weight="400" font-style="" y="91.71666269302368" transform="rotate(0)"><tspan id="SvgjsTspan1064" dy="16" x="488"><tspan id="SvgjsTspan1065" style="text-decoration:;">添加slime crd</tspan></tspan></text></g><g id="SvgjsG1066"><path id="SvgjsPath1067" d="M337.25 130.99999618530273L215.625 130.99999618530273L215.625 130.99999618530273L94 130.99999618530273" stroke="#323232" stroke-width="2" fill="none" marker-end="url(#SvgjsMarker1068)"></path><rect id="SvgjsRect1070" width="65" height="16" x="183.125" y="122.99999618530273" fill="#ffffff"></rect><text id="SvgjsText1071" font-family="微软雅黑" text-anchor="middle" font-size="13px" width="65" fill="#323232" font-weight="400" align="top" anchor="middle" family="微软雅黑" size="13px" weight="400" font-style="" y="121.04999618530273" transform="rotate(0)"><tspan id="SvgjsTspan1072" dy="16" x="215.625"><tspan id="SvgjsTspan1073" style="text-decoration:;">WatchAdd</tspan></tspan></text></g><g id="SvgjsG1074" transform="translate(334,286.99999618530273)"><path id="SvgjsPath1075" d="M 0 4Q 0 0 4 0L 26 0Q 30 0 30 4L 30 184.33333587646484Q 30 188.33333587646484 26 188.33333587646484L 4 188.33333587646484Q 0 188.33333587646484 0 184.33333587646484L 0 4Z" stroke="#323232" stroke-width="2" fill-opacity="1" fill="#ffffff"></path></g><g id="SvgjsG1076"><path id="SvgjsPath1077" d="M96 307.33332920074463L215 307.33332920074463L215 306.3333320617676L334 306.3333320617676" stroke="#323232" stroke-width="2" fill="none" marker-end="url(#SvgjsMarker1078)"></path><rect id="SvgjsRect1080" width="117" height="16" x="156.5" y="298.8333306312561" fill="#ffffff"></rect><text id="SvgjsText1081" font-family="微软雅黑" text-anchor="middle" font-size="13px" width="117" fill="#323232" font-weight="400" align="top" anchor="middle" family="微软雅黑" size="13px" weight="400" font-style="" y="296.8833306312561" transform="rotate(0)"><tspan id="SvgjsTspan1082" dy="16" x="215"><tspan id="SvgjsTspan1083" style="text-decoration:;">新实例的监控项更新</tspan></tspan></text></g></svg>